<svg width="32" height="32" viewBox="0 0 32 32" fill="none" xmlns="http://www.w3.org/2000/svg">
<path d="M28.5532 26.7824H25.0776V4.76987C25.0776 4.66015 25.0372 4.55427 24.964 4.47247C24.8909 4.39068 24.7902 4.33869 24.6811 4.32646L12.9452 3.00183C12.8828 2.99479 12.8195 3.00102 12.7596 3.0201C12.6998 3.03919 12.6446 3.0707 12.5977 3.11258C12.5508 3.15446 12.5134 3.20577 12.4877 3.26314C12.462 3.32051 12.4487 3.38265 12.4487 3.4455V4.3234H7.36759C7.24918 4.3234 7.13562 4.37044 7.05189 4.45417C6.96816 4.5379 6.92112 4.65146 6.92112 4.76987V26.7824H3.4455C3.32709 26.7824 3.21352 26.8294 3.12979 26.9132C3.04606 26.9969 2.99902 27.1104 2.99902 27.2289C2.99902 27.3473 3.04606 27.4608 3.12979 27.5446C3.21352 27.6283 3.32709 27.6753 3.4455 27.6753H12.4487V28.5532C12.4487 28.6716 12.4958 28.7852 12.5795 28.8689C12.6632 28.9527 12.7768 28.9997 12.8952 28.9997C12.9123 28.9998 12.9293 28.9989 12.9462 28.9969L24.6566 27.6753H28.554C28.6724 27.6753 28.786 27.6283 28.8697 27.5446C28.9534 27.4608 29.0005 27.3473 29.0005 27.2289C29.0005 27.1104 28.9534 26.9969 28.8697 26.9132C28.786 26.8294 28.6724 26.7824 28.554 26.7824H28.5532ZM7.81407 5.21635H12.4487V6.36443H9.40837C9.28996 6.36443 9.17639 6.41147 9.09266 6.4952C9.00893 6.57893 8.96189 6.69249 8.96189 6.8109V26.7824H7.81381L7.81407 5.21635ZM9.8551 26.7824V7.25738H12.4487V26.7824H9.8551ZM13.3417 3.94504L24.1847 5.16966V26.8301L13.3417 28.0547V3.94504Z" fill="black"/>
<path d="M15.2662 14.6709C15.0034 14.6709 14.7465 14.7488 14.528 14.8948C14.3095 15.0408 14.1392 15.2483 14.0386 15.4911C13.9381 15.7339 13.9118 16.0011 13.963 16.2588C14.0143 16.5166 14.1408 16.7533 14.3267 16.9391C14.5125 17.125 14.7492 17.2515 15.007 17.3028C15.2647 17.3541 15.5319 17.3277 15.7747 17.2272C16.0175 17.1266 16.225 16.9563 16.371 16.7378C16.517 16.5193 16.5949 16.2624 16.5949 15.9996C16.5945 15.6473 16.4544 15.3096 16.2053 15.0605C15.9562 14.8114 15.6185 14.6713 15.2662 14.6709ZM15.2662 16.4354C15.18 16.4354 15.0958 16.4098 15.0241 16.3619C14.9525 16.314 14.8966 16.246 14.8636 16.1664C14.8306 16.0867 14.822 15.9991 14.8388 15.9146C14.8556 15.8301 14.8971 15.7524 14.9581 15.6915C15.019 15.6305 15.0967 15.589 15.1812 15.5722C15.2657 15.5554 15.3533 15.564 15.433 15.597C15.5126 15.63 15.5807 15.6859 15.6285 15.7575C15.6764 15.8292 15.702 15.9134 15.702 15.9996C15.7018 16.1151 15.6559 16.2259 15.5742 16.3076C15.4925 16.3893 15.3817 16.4352 15.2662 16.4354Z" fill="black"/>
</svg>
