<svg width="32" height="32" viewBox="0 0 32 32" fill="none" xmlns="http://www.w3.org/2000/svg">
<path d="M13.2499 12.0001H5.74994C4.78497 12.0001 4 11.2151 4 10.2499V5.74994C4 4.78497 4.78497 4 5.74994 4H13.2499C14.2151 4 15.0001 4.78497 15.0001 5.74994V10.2499C15.0001 11.2151 14.2151 12.0001 13.2499 12.0001ZM5.74994 5.5C5.61206 5.5 5.5 5.61206 5.5 5.74994V10.2499C5.5 10.388 5.61206 10.5001 5.74994 10.5001H13.2499C13.388 10.5001 13.5001 10.388 13.5001 10.2499V5.74994C13.5001 5.61206 13.388 5.5 13.2499 5.5H5.74994Z" fill="black"/>
<path d="M13.2499 28.0001H5.74994C4.78497 28.0001 4 27.2151 4 26.2501V15.7501C4 14.785 4.78497 14 5.74994 14H13.2499C14.2151 14 15.0001 14.785 15.0001 15.7501V26.2501C15.0001 27.2151 14.2151 28.0001 13.2499 28.0001ZM5.74994 15.5C5.61206 15.5 5.5 15.6121 5.5 15.7501V26.2501C5.5 26.388 5.61206 26.5001 5.74994 26.5001H13.2499C13.388 26.5001 13.5001 26.388 13.5001 26.2501V15.7501C13.5001 15.6121 13.388 15.5 13.2499 15.5H5.74994Z" fill="black"/>
<path d="M26.2501 28.0001H18.7501C17.785 28.0001 17 27.2151 17 26.2501V21.7501C17 20.785 17.785 20 18.7501 20H26.2501C27.2151 20 28.0001 20.785 28.0001 21.7501V26.2501C28.0001 27.2151 27.2151 28.0001 26.2501 28.0001ZM18.7501 21.5C18.6121 21.5 18.5 21.6121 18.5 21.7501V26.2501C18.5 26.388 18.6121 26.5001 18.7501 26.5001H26.2501C26.388 26.5001 26.5001 26.388 26.5001 26.2501V21.7501C26.5001 21.6121 26.388 21.5 26.2501 21.5H18.7501Z" fill="black"/>
<path d="M26.2501 18.0001H18.7501C17.785 18.0001 17 17.2151 17 16.2499V5.74994C17 4.78497 17.785 4 18.7501 4H26.2501C27.2151 4 28.0001 4.78497 28.0001 5.74994V16.2499C28.0001 17.2151 27.2151 18.0001 26.2501 18.0001ZM18.7501 5.5C18.6121 5.5 18.5 5.61206 18.5 5.74994V16.2499C18.5 16.388 18.6121 16.5001 18.7501 16.5001H26.2501C26.388 16.5001 26.5001 16.388 26.5001 16.2499V5.74994C26.5001 5.61206 26.388 5.5 26.2501 5.5H18.7501Z" fill="black"/>
</svg>
