<svg width="28" height="24" viewBox="0 0 28 24" fill="none" xmlns="http://www.w3.org/2000/svg">
<path d="M24.3637 24H3.63645C2.13318 24 0.90918 22.776 0.90918 21.2727V2.72727C0.90918 1.224 2.13318 0 3.63645 0H24.3637C25.867 0 27.091 1.224 27.091 2.72727V21.2727C27.091 22.776 25.867 24 24.3637 24ZM3.63645 1.09091C2.73427 1.09091 2.00009 1.82509 2.00009 2.72727V21.2727C2.00009 22.1749 2.73427 22.9091 3.63645 22.9091H24.3637C25.2659 22.9091 26.0001 22.1749 26.0001 21.2727V2.72727C26.0001 1.82509 25.2659 1.09091 24.3637 1.09091H3.63645Z" fill="black"/>
<path d="M26.5455 7.63681H1.45463C1.15354 7.63681 0.90918 7.39244 0.90918 7.09135C0.90918 6.79026 1.15354 6.5459 1.45463 6.5459H26.5455C26.8466 6.5459 27.091 6.79026 27.091 7.09135C27.091 7.39244 26.8466 7.63681 26.5455 7.63681Z" fill="black"/>
<path d="M26.5455 13.0909H1.45463C1.15354 13.0909 0.90918 12.8465 0.90918 12.5455C0.90918 12.2444 1.15354 12 1.45463 12H26.5455C26.8466 12 27.091 12.2444 27.091 12.5455C27.091 12.8465 26.8466 13.0909 26.5455 13.0909Z" fill="black"/>
<path d="M26.5455 18.545H1.45463C1.15354 18.545 0.90918 18.3006 0.90918 17.9996C0.90918 17.6985 1.15354 17.4541 1.45463 17.4541H26.5455C26.8466 17.4541 27.091 17.6985 27.091 17.9996C27.091 18.3006 26.8466 18.545 26.5455 18.545Z" fill="black"/>
<path d="M7.99956 24.0004C7.69847 24.0004 7.4541 23.7561 7.4541 23.455V7.09135C7.4541 6.79026 7.69847 6.5459 7.99956 6.5459C8.30065 6.5459 8.54501 6.79026 8.54501 7.09135V23.455C8.54501 23.7561 8.30065 24.0004 7.99956 24.0004Z" fill="black"/>
<path d="M13.9996 24.0004C13.6985 24.0004 13.4541 23.7561 13.4541 23.455V7.09135C13.4541 6.79026 13.6985 6.5459 13.9996 6.5459C14.3006 6.5459 14.545 6.79026 14.545 7.09135V23.455C14.545 23.7561 14.3006 24.0004 13.9996 24.0004Z" fill="black"/>
<path d="M19.9996 24.0004C19.6985 24.0004 19.4541 23.7561 19.4541 23.455V7.09135C19.4541 6.79026 19.6985 6.5459 19.9996 6.5459C20.3006 6.5459 20.545 6.79026 20.545 7.09135V23.455C20.545 23.7561 20.3006 24.0004 19.9996 24.0004Z" fill="black"/>
</svg>
