<svg width="23" height="24" viewBox="0 0 23 24" fill="none" xmlns="http://www.w3.org/2000/svg">
<path d="M22.6722 12.828C22.6722 15.7911 21.4951 18.6329 19.3999 20.7281C17.3046 22.8234 14.4628 24.0005 11.4997 24.0005C8.53657 24.0005 5.6948 22.8234 3.59954 20.7281C1.50429 18.6329 0.327192 15.7911 0.327192 12.828C0.322966 11.2846 0.624773 9.75576 1.21516 8.3298C1.80554 6.90384 2.67278 5.60908 3.76673 4.52041C3.83513 4.42688 3.92308 4.34938 4.02446 4.29327C4.12584 4.23717 4.23822 4.20381 4.35379 4.19552C4.46936 4.18724 4.58535 4.20421 4.6937 4.24528C4.80205 4.28634 4.90016 4.35051 4.9812 4.43332C5.06225 4.51613 5.12429 4.61559 5.16302 4.7248C5.20174 4.834 5.21622 4.95033 5.20545 5.0657C5.19468 5.18107 5.15892 5.29271 5.10065 5.39286C5.04237 5.49301 4.96299 5.57927 4.86802 5.64564C3.92609 6.58822 3.18074 7.70849 2.67524 8.94144C2.16973 10.1744 1.91413 11.4954 1.92326 12.828C1.92326 15.3678 2.93221 17.8036 4.72814 19.5995C6.52407 21.3955 8.95987 22.4044 11.4997 22.4044C14.0395 22.4044 16.4753 21.3955 18.2713 19.5995C20.0672 17.8036 21.0761 15.3678 21.0761 12.828C21.0853 11.4954 20.8297 10.1744 20.3242 8.94144C19.8187 7.70849 19.0733 6.58822 18.1314 5.64564C17.9967 5.49588 17.9236 5.30074 17.9268 5.09936C17.93 4.89798 18.0092 4.70525 18.1486 4.55984C18.2879 4.41442 18.4771 4.32708 18.6782 4.31533C18.8793 4.30357 19.0773 4.36828 19.2327 4.49647C20.3295 5.58797 21.1984 6.88662 21.7889 8.31691C22.3793 9.7472 22.6796 11.2806 22.6722 12.828ZM11.4997 14.424C11.7114 14.424 11.9143 14.34 12.064 14.1903C12.2137 14.0406 12.2977 13.8377 12.2977 13.626V1.65546C12.2977 1.44381 12.2137 1.24082 12.064 1.09116C11.9143 0.9415 11.7114 0.857422 11.4997 0.857422C11.288 0.857422 11.0851 0.9415 10.9354 1.09116C10.7857 1.24082 10.7017 1.44381 10.7017 1.65546V13.626C10.7017 13.8377 10.7857 14.0406 10.9354 14.1903C11.0851 14.34 11.288 14.424 11.4997 14.424Z" fill="black"/>
</svg>
