<svg width="32" height="32" viewBox="0 0 32 32" fill="none" xmlns="http://www.w3.org/2000/svg">
<path d="M27 16V19.3802C27 23.5818 23.5818 27 19.3802 27H12.6198C8.41821 27 5 23.5818 5 19.3802V12.6198C5 8.41821 8.41821 5 12.6198 5H19.3802C21.1823 5 22.9575 5.63396 24.3768 6.8682V5.85938C24.3768 5.38474 24.7615 5 25.2362 5C25.7108 5 26.0956 5.38474 26.0956 5.85938V9.2396C26.0956 9.67161 25.7689 10.0444 25.3322 10.0933C25.2589 10.1015 25.3895 10.0985 21.856 10.099C21.3813 10.099 20.9966 9.71423 20.9966 9.2396C20.9966 8.76496 21.3813 8.38022 21.856 8.38022H23.4816C22.3939 7.33157 20.9256 6.71875 19.3802 6.71875H12.6198C9.36593 6.71875 6.71875 9.36593 6.71875 12.6198V19.3802C6.71875 22.6341 9.36593 25.2812 12.6198 25.2812H19.3802C22.6341 25.2812 25.2812 22.6341 25.2812 19.3802V16C25.2812 15.5254 25.666 15.1406 26.1406 15.1406C26.6153 15.1406 27 15.5254 27 16ZM16 10.0703C15.5254 10.0703 15.1406 10.4551 15.1406 10.9297V16C15.1406 16.2279 15.2312 16.4465 15.3923 16.6077L18.7725 19.9879C19.1081 20.3235 19.6523 20.3236 19.9879 19.9879C20.3235 19.6523 20.3235 19.1081 19.9879 18.7726L16.8594 15.644V10.9297C16.8594 10.4551 16.4746 10.0703 16 10.0703Z" fill="black"/>
</svg>
