<svg width="32" height="32" viewBox="0 0 32 32" fill="none" xmlns="http://www.w3.org/2000/svg">
<path d="M15.7188 12.4375C15.9775 12.4375 16.1875 12.2275 16.1875 11.9688C16.1875 11.71 15.9775 11.5 15.7188 11.5C15.46 11.5 15.25 11.71 15.25 11.9688C15.25 12.2275 15.46 12.4375 15.7188 12.4375Z" fill="black"/>
<path d="M15.7188 14.3125C15.9775 14.3125 16.1875 14.1025 16.1875 13.8438C16.1875 13.585 15.9775 13.375 15.7188 13.375C15.46 13.375 15.25 13.585 15.25 13.8438C15.25 14.1025 15.46 14.3125 15.7188 14.3125Z" fill="black"/>
<path d="M27.8627 8.82483L23.1752 4.13733C23.0922 4.0542 22.9717 4 22.8438 4H11.0312C10.2558 4 9.625 4.6308 9.625 5.40625V6.83411C9.46936 6.82001 9.31281 6.8125 9.15625 6.8125C6.31317 6.8125 4 9.12567 4 11.9688C4 14.8118 6.31317 17.125 9.15625 17.125C9.31281 17.125 9.46936 17.1175 9.625 17.1034V26.5938C9.625 27.3692 10.2558 28 11.0312 28H26.5938C27.3692 28 28 27.3692 28 26.5938V9.15625C28 9.02826 27.9467 8.90887 27.8627 8.82483ZM23.3125 5.60034L26.3997 8.6875H23.3125V5.60034ZM9.625 7.77618C11.6044 7.99463 13.1315 9.57281 13.3479 11.5H9.625V7.77618ZM4.9375 11.9688C4.9375 9.80096 6.58105 8.01019 8.6875 7.77618V11.9688C8.6875 12.2277 8.89734 12.437 9.15625 12.437H13.3479C13.1124 14.5339 11.3383 16.1875 9.15625 16.1875C6.83008 16.1875 4.9375 14.2949 4.9375 11.9688ZM26.5938 27.0625H11.0312C10.7727 27.0625 10.5625 26.8523 10.5625 26.5938V16.9298C12.7568 16.3087 14.3125 14.2817 14.3125 11.9688C14.3125 9.65576 12.7568 7.62878 10.5625 7.00769V5.40625C10.5625 5.14771 10.7727 4.9375 11.0312 4.9375H22.375V9.15625C22.375 9.41516 22.5848 9.625 22.8438 9.625H27.0625V26.5938C27.0625 26.8523 26.8523 27.0625 26.5938 27.0625Z" fill="black"/>
<path d="M16 7.75H20.9688C21.2277 7.75 21.4375 7.54016 21.4375 7.28125C21.4375 7.02234 21.2277 6.8125 20.9688 6.8125H16C15.7411 6.8125 15.5312 7.02234 15.5312 7.28125C15.5312 7.54016 15.7411 7.75 16 7.75Z" fill="black"/>
<path d="M16 9.625H20.9688C21.2277 9.625 21.4375 9.41516 21.4375 9.15625C21.4375 8.89734 21.2277 8.6875 20.9688 8.6875H16C15.7411 8.6875 15.5312 8.89734 15.5312 9.15625C15.5312 9.41516 15.7411 9.625 16 9.625Z" fill="black"/>
<path d="M9.15625 14.3125C7.86389 14.3125 6.8125 13.2611 6.8125 11.9688C6.8125 11.7098 6.60266 11.5 6.34375 11.5C6.08484 11.5 5.875 11.7098 5.875 11.9688C5.875 13.778 7.34698 15.25 9.15625 15.25C9.41516 15.25 9.625 15.0402 9.625 14.7812C9.625 14.5223 9.41516 14.3125 9.15625 14.3125Z" fill="black"/>
<path d="M24.5781 16.4688C23.8027 16.4688 23.1719 17.0995 23.1719 17.875C23.1719 18.1656 23.2605 18.436 23.4121 18.6603L20.157 22.154C20.0281 22.115 19.8915 22.0938 19.75 22.0938C19.5522 22.0938 19.3609 22.1348 19.1851 22.2119L17.719 20.3943C17.8208 20.1975 17.875 19.978 17.875 19.75C17.875 18.9745 17.2442 18.3438 16.4688 18.3438C15.6933 18.3438 15.0625 18.9745 15.0625 19.75C15.0625 19.969 15.1127 20.1801 15.2068 20.3709L13.4975 22.2236C13.3146 22.1386 13.1139 22.0938 12.9062 22.0938C12.1308 22.0938 11.5 22.7245 11.5 23.5C11.5 24.2755 12.1308 24.9062 12.9062 24.9062C13.6817 24.9062 14.3125 24.2755 14.3125 23.5C14.3125 23.281 14.2625 23.0699 14.1682 22.8791L15.8775 21.0264C16.0604 21.1114 16.2611 21.1562 16.4688 21.1562C16.6665 21.1562 16.8578 21.1152 17.0336 21.0381L18.4998 22.8557C18.3979 23.0525 18.3438 23.272 18.3438 23.5C18.3438 24.2755 18.9745 24.9062 19.75 24.9062C20.5255 24.9062 21.1562 24.2755 21.1562 23.5C21.1562 23.2094 21.0676 22.939 20.916 22.7147L24.1711 19.221C24.3 19.26 24.4366 19.2812 24.5781 19.2812C25.3536 19.2812 25.9844 18.6505 25.9844 17.875C25.9844 17.0995 25.3536 16.4688 24.5781 16.4688ZM12.9062 23.9688C12.6477 23.9688 12.4375 23.7585 12.4375 23.5C12.4375 23.2415 12.6477 23.0312 12.9062 23.0312C13.165 23.0312 13.375 23.2411 13.375 23.5C13.375 23.7585 13.1648 23.9688 12.9062 23.9688ZM16 19.75C16 19.4915 16.2102 19.2812 16.4688 19.2812C16.7273 19.2812 16.9375 19.4915 16.9375 19.75C16.9375 20.0087 16.7277 20.2188 16.4688 20.2188C16.2098 20.2188 16 20.0087 16 19.75ZM19.75 23.9688C19.4915 23.9688 19.2812 23.7585 19.2812 23.5C19.2812 23.2413 19.4911 23.0312 19.75 23.0312C20.0085 23.0312 20.2188 23.2415 20.2188 23.5C20.2188 23.7585 20.0085 23.9688 19.75 23.9688ZM24.5781 18.3438C24.3196 18.3438 24.1094 18.1335 24.1094 17.875C24.1094 17.6165 24.3196 17.4062 24.5781 17.4062C24.8367 17.4062 25.0469 17.6165 25.0469 17.875C25.0469 18.1335 24.8367 18.3438 24.5781 18.3438Z" fill="black"/>
<path d="M17.125 11.9688C17.125 12.2277 17.3348 12.4375 17.5938 12.4375H24.7188C24.9777 12.4375 25.1875 12.2277 25.1875 11.9688C25.1875 11.7098 24.9777 11.5 24.7188 11.5H17.5938C17.3348 11.5 17.125 11.7098 17.125 11.9688Z" fill="black"/>
<path d="M24.7188 13.375H17.5938C17.3348 13.375 17.125 13.5848 17.125 13.8438C17.125 14.1027 17.3348 14.3125 17.5938 14.3125H24.7188C24.9777 14.3125 25.1875 14.1027 25.1875 13.8438C25.1875 13.5848 24.9777 13.375 24.7188 13.375Z" fill="black"/>
</svg>
