<svg width="25" height="24" viewBox="0 0 25 24" fill="none" xmlns="http://www.w3.org/2000/svg">
<path d="M13.2531 24H11.7469C10.5286 24 9.53745 23.0089 9.53745 21.7906V21.2811C9.01953 21.1156 8.51633 20.9067 8.03291 20.6565L7.67178 21.0177C6.79714 21.8934 5.39609 21.8677 4.54686 21.0173L3.48228 19.9528C2.63155 19.103 2.60708 17.7024 3.48256 16.8279L3.84341 16.467C3.59323 15.9836 3.38441 15.4805 3.21889 14.9625H2.70936C1.49117 14.9625 0.5 13.9714 0.5 12.7531V11.2469C0.5 10.0286 1.49117 9.0375 2.70941 9.0375H3.21894C3.38445 8.51953 3.59328 8.01638 3.84345 7.53295L3.48233 7.17188C2.60736 6.29784 2.6315 4.89712 3.48261 4.04695L4.54728 2.98233C5.39848 2.12995 6.7992 2.10867 7.67216 2.98261L8.03295 3.34341C8.51638 3.09328 9.01958 2.88441 9.5375 2.71889V2.20936C9.5375 0.991125 10.5286 0 11.7469 0H13.2531C14.4714 0 15.4625 0.991125 15.4625 2.20936V2.71894C15.9804 2.88441 16.4836 3.09328 16.967 3.34345L17.3282 2.98233C18.2028 2.10661 19.6039 2.1323 20.4531 2.98266L21.5177 4.04719C22.3684 4.89698 22.3929 6.29756 21.5174 7.17211L21.1565 7.53295C21.4067 8.01638 21.6155 8.51948 21.7811 9.0375H22.2906C23.5088 9.0375 24.5 10.0286 24.5 11.2469V12.7531C24.5 13.9714 23.5088 14.9625 22.2906 14.9625H21.7811C21.6155 15.4805 21.4067 15.9836 21.1565 16.467L21.5177 16.8282C22.3926 17.7022 22.3685 19.1029 21.5174 19.9531L20.4527 21.0177C19.6015 21.8701 18.2008 21.8914 17.3278 21.0174L16.967 20.6566C16.4836 20.9068 15.9804 21.1156 15.4625 21.2812V21.7907C15.4625 23.0089 14.4714 24 13.2531 24ZM8.26798 19.1798C8.93956 19.577 9.66238 19.8771 10.4163 20.0716C10.7268 20.1518 10.9438 20.4318 10.9438 20.7525V21.7906C10.9438 22.2335 11.3041 22.5938 11.7469 22.5938H13.2531C13.696 22.5938 14.0563 22.2335 14.0563 21.7906V20.7525C14.0563 20.4318 14.2732 20.1518 14.5837 20.0716C15.3377 19.8771 16.0605 19.577 16.7321 19.1798C17.0084 19.0164 17.3602 19.0609 17.5872 19.2879L18.3226 20.0233C18.6396 20.3407 19.1488 20.3334 19.4581 20.0236L20.5234 18.9584C20.8319 18.6502 20.8422 18.141 20.5237 17.8228L19.788 17.0871C19.561 16.8601 19.5166 16.5083 19.6799 16.232C20.0771 15.5605 20.3771 14.8377 20.5717 14.0837C20.6518 13.7732 20.9319 13.5563 21.2525 13.5563H22.2906C22.7335 13.5563 23.0938 13.196 23.0938 12.7532V11.2469C23.0938 10.8041 22.7335 10.4438 22.2906 10.4438H21.2525C20.9318 10.4438 20.6518 10.2269 20.5717 9.91641C20.3771 9.16242 20.0771 8.43961 19.6799 7.76808C19.5166 7.4918 19.561 7.13995 19.788 6.91298L20.5234 6.17756C20.8413 5.86003 20.833 5.35097 20.5237 5.04202L19.4585 3.97678C19.1497 3.66759 18.6404 3.65855 18.3229 3.9765L17.5872 4.7122C17.3603 4.93922 17.0083 4.98366 16.7321 4.82025C16.0605 4.42308 15.3377 4.12303 14.5838 3.92845C14.2733 3.84834 14.0563 3.56831 14.0563 3.24764V2.20936C14.0563 1.76653 13.696 1.40625 13.2532 1.40625H11.747C11.3041 1.40625 10.9438 1.76653 10.9438 2.20936V3.24755C10.9438 3.56822 10.7269 3.84825 10.4164 3.92836C9.66242 4.12294 8.93961 4.42298 8.26803 4.82016C7.99166 4.98352 7.63986 4.93908 7.41289 4.71211L6.67752 3.97669C6.36045 3.65925 5.85125 3.66661 5.54202 3.97636L4.47669 5.04164C4.16816 5.3498 4.15784 5.859 4.47641 6.17719L5.21211 6.91289C5.43908 7.13986 5.48352 7.4917 5.32016 7.76798C4.92298 8.43952 4.62298 9.16233 4.42841 9.91631C4.34825 10.2268 4.06822 10.4437 3.74759 10.4437H2.70941C2.26658 10.4437 1.90625 10.804 1.90625 11.2469V12.7531C1.90625 13.196 2.26658 13.5563 2.70941 13.5563H3.74755C4.06822 13.5563 4.3482 13.7732 4.42836 14.0836C4.62294 14.8376 4.92298 15.5604 5.32011 16.232C5.48347 16.5083 5.43903 16.8601 5.21206 17.0871L4.47664 17.8225C4.15873 18.14 4.16703 18.6491 4.47636 18.958L5.54159 20.0233C5.85036 20.3325 6.35961 20.3415 6.67714 20.0235L7.4128 19.2878C7.58005 19.1206 7.928 18.9788 8.26798 19.1798Z" fill="black"/>
<path d="M12.5002 17.2221C9.6208 17.2221 7.27832 14.8795 7.27832 12.0002C7.27832 9.12085 9.6208 6.77832 12.5002 6.77832C15.3796 6.77832 17.7221 9.12085 17.7221 12.0002C17.7221 14.8795 15.3796 17.2221 12.5002 17.2221ZM12.5002 8.18457C10.3962 8.18457 8.68457 9.89626 8.68457 12.0002C8.68457 14.1041 10.3963 15.8158 12.5002 15.8158C14.6041 15.8158 16.3158 14.1041 16.3158 12.0002C16.3158 9.89626 14.6042 8.18457 12.5002 8.18457Z" fill="black"/>
</svg>
