<svg width="22" height="28" viewBox="0 0 22 28" fill="none" xmlns="http://www.w3.org/2000/svg">
<path d="M21.0626 26.0631C19.8151 19.7991 19.869 20.0658 19.8629 20.0401C19.6993 19.2483 19.2394 18.5909 18.4938 18.1791C18.145 17.986 17.944 17.9559 17.7681 17.8985L14.7034 16.834L13.682 16.1334V15.3388C15.1756 14.4515 16.1265 12.9234 16.3004 11.2698C17.5485 11.3276 18.4184 10.1347 17.8951 9.09025V5.74666C17.8951 3.32871 16.5801 2.48751 16.1783 2.28702C14.2125 -0.059776 10.5416 -0.661666 7.75876 0.766277L7.7534 0.768957C7.70565 0.797011 7.13215 1.06235 6.42591 1.65287C6.25458 1.80107 6.23582 2.06007 6.38397 2.23141C6.53239 2.40296 6.79145 2.42128 6.96251 2.27335C9.68791 -0.0150965 13.7331 0.572957 15.6032 2.87885C15.6493 2.93556 15.7053 2.9774 15.7737 3.00299C15.8269 3.02432 17.0749 3.54954 17.0749 5.74666V8.33523C16.8473 8.23887 16.5978 8.18949 16.3319 8.19693V6.85539C16.3319 6.51507 16.0756 6.23381 15.7356 6.201C15.0463 6.13445 14.6601 5.68535 14.4575 5.32043C14.2038 4.86362 13.5983 4.75419 13.2013 5.09347C11.3725 6.65671 9.26682 6.73612 7.82241 6.52781C6.73134 6.37031 5.71656 7.11346 5.53998 8.19748C5.27442 8.18599 5.01203 8.23302 4.7708 8.33518C4.77239 6.92309 4.60947 5.38671 5.76436 3.62615C5.88828 3.4365 5.83496 3.18237 5.64531 3.05844C5.45571 2.93447 5.20152 2.98768 5.0776 3.17744C3.50588 5.58577 4.06823 7.74373 3.95043 9.09019C3.4274 10.1342 4.29617 11.3276 5.54512 11.2696C5.74899 13.2172 6.94873 14.3376 6.97722 14.3864L6.97727 14.3864C7.19023 14.5906 7.57265 15.017 8.3181 15.4279V16.1333L7.29681 16.8338C3.29976 18.2222 3.70544 18.0537 3.3807 18.2521C2.76695 18.6302 2.34153 19.2084 2.16423 19.9203C2.12929 20.061 2.18731 19.7951 0.937542 26.0629C0.912386 26.1895 0.899152 26.4363 0.921737 26.6456C1.01438 27.5063 1.6248 27.9999 2.59648 27.9999H13.8667C14.0933 27.9999 14.2768 27.8164 14.2768 27.5898C14.2768 27.3632 14.0933 27.1796 13.8667 27.1796H5.48081V23.4216C5.48081 23.1951 5.29717 23.0115 5.07065 23.0115C4.84414 23.0115 4.6605 23.1951 4.6605 23.4216V27.1797H2.59637C1.95331 27.1797 1.65132 26.9038 1.7444 26.2113C2.86675 20.7271 2.86916 20.2845 3.05274 19.8352C3.08473 19.7904 3.26159 19.1575 4.12872 18.7894C4.21835 18.7527 4.16246 18.7773 4.47079 18.6833C4.48982 18.6779 4.39581 18.7098 5.86881 18.1984L6.85127 20.012C6.95917 20.2112 7.208 20.2853 7.40728 20.1773C7.60645 20.0694 7.68044 19.8205 7.57255 19.6213L6.65402 17.9256L7.28216 17.7074C7.58496 18.2664 10.266 23.2155 10.5574 23.7534C10.7373 24.0865 11.1953 24.1031 11.4062 23.8122C11.4445 23.7595 11.2261 24.1515 14.7127 17.7055L15.3407 17.9237L12.0204 24.0656C11.5827 24.8752 10.419 24.8753 9.98071 24.0664L8.48429 21.3041C8.37634 21.1049 8.12751 21.0307 7.92829 21.1388C7.72912 21.2468 7.65512 21.4956 7.76302 21.6948L9.25949 24.4572C10.008 25.8387 11.995 25.8374 12.742 24.4557L16.1258 18.1964C17.5955 18.7067 17.5093 18.6775 17.5283 18.683C17.8175 18.7711 17.7853 18.7542 17.8705 18.789C18.1841 18.9226 18.3713 19.0768 18.3658 19.0727C18.6874 19.3321 18.9092 19.6318 19.0276 20.0731C19.0471 20.1431 20.2647 26.1801 20.2696 26.3838C20.2818 26.8988 20.0595 27.1797 19.4039 27.1797H17.3396V23.4216C17.3396 23.1951 17.156 23.0115 16.9294 23.0115C16.7029 23.0115 16.5193 23.1951 16.5193 23.4216V27.1797H15.7805C15.554 27.1797 15.3704 27.3633 15.3704 27.5898C15.3704 27.8164 15.554 28 15.7805 28H19.4037C20.3754 28 20.9858 27.5064 21.0783 26.6462C21.1007 26.4409 21.0876 26.1889 21.0626 26.0631ZM16.3319 9.01751C16.8049 8.99252 17.2282 9.31113 17.2282 9.73375C17.2282 10.1606 16.8003 10.4748 16.3319 10.45V9.01751ZM5.51373 10.45C5.04079 10.4751 4.6174 10.1564 4.6174 9.73381C4.6174 9.30697 5.04533 8.99274 5.51373 9.01751V10.45ZM7.70516 7.3397C9.3174 7.5724 11.6721 7.47981 13.7342 5.71702L13.7402 5.7186C14.1364 6.432 14.7615 6.88235 15.5116 6.99916V8.45161L15.0436 8.72783C14.8508 8.45013 14.5301 8.26758 14.1674 8.26758H12.2904C11.8477 8.26758 11.4674 8.53889 11.3064 8.92383H10.5392C10.3782 8.53889 9.99782 8.26758 9.55513 8.26758H7.6782C7.31535 8.26758 6.99461 8.45013 6.802 8.72783L6.33612 8.45281C6.37648 7.75166 7.0103 7.23919 7.70516 7.3397ZM14.4134 9.33399V10.1508C14.4134 10.5066 14.124 10.796 13.7682 10.796H12.6895C12.3337 10.796 12.0443 10.5065 12.0443 10.1508V9.33399H12.0443C12.0443 9.20061 12.157 9.0879 12.2904 9.0879H14.1674C14.3007 9.0879 14.4134 9.20061 14.4134 9.33399ZM9.80122 9.33399V10.1508C9.80122 10.5066 9.51182 10.796 9.15602 10.796H8.07731C7.72151 10.796 7.43211 10.5065 7.43211 10.1508V9.33399C7.43211 9.20061 7.54482 9.0879 7.6782 9.0879H9.55513C9.68851 9.0879 9.80122 9.20061 9.80122 9.33399ZM7.44015 13.6744C6.11272 12.1272 6.3686 10.6249 6.33404 9.40415L6.61191 9.56816V10.1508C6.61191 10.9589 7.2693 11.6163 8.07737 11.6163H9.15607C9.96413 11.6163 10.6215 10.9589 10.6215 10.1508V9.74409H11.2242V10.1508C11.2242 10.9589 11.8816 11.6163 12.6897 11.6163H13.7684C14.5765 11.6163 15.2339 10.9589 15.2339 10.1508V9.56816L15.5118 9.40415V10.6866C15.5118 13.1261 13.581 15.2457 10.923 15.2749C10.9174 15.2748 10.8622 15.2745 10.8677 15.2745C10.1587 15.2674 9.61381 15.0856 9.66893 15.1011C8.8641 14.8779 8.0965 14.4171 7.44015 13.6744ZM11.0001 18.263L9.13841 16.1915V15.7937C9.99454 16.091 10.8824 16.1594 11.7091 16.0388C11.9398 16.0053 12.1881 15.9503 12.3333 15.9093C12.3678 15.8981 12.5658 15.8508 12.8617 15.7369V16.1915L11.0001 18.263ZM11.462 19.7247L11.2808 20.0979H10.7194L10.5381 19.7247L11.0001 19.3854L11.462 19.7247ZM9.91918 20.8532L9.658 20.3711L9.86603 20.2184L10.0215 20.5385L9.91918 20.8532ZM9.26643 19.641L8.02027 17.3358L8.66476 16.8914L10.3925 18.814C10.2927 18.8872 9.36443 19.569 9.26643 19.641ZM11 22.8482L10.4582 21.8482L10.7607 20.9181H11.2397L11.5416 21.8466C11.3699 22.164 11.2105 22.4589 11 22.8482ZM12.0801 20.8502L11.9787 20.5384L12.1342 20.2183L12.34 20.3694L12.0801 20.8502ZM12.7338 19.641C12.6272 19.5628 11.7362 18.9083 11.6078 18.814L13.3356 16.8914L13.98 17.3358C13.5661 18.1014 13.0024 19.1441 12.7338 19.641Z" fill="black"/>
</svg>
