<svg width="28" height="26" viewBox="0 0 28 26" fill="none" xmlns="http://www.w3.org/2000/svg">
<path d="M20.2958 24.5806C20.062 24.5804 19.83 24.5391 19.6104 24.4588L16.6469 23.3787C16.4361 23.3018 16.3276 23.0686 16.4045 22.8578C16.4814 22.6471 16.7146 22.5386 16.9253 22.6155L19.8888 23.6956C20.5042 23.9198 21.1848 23.6027 21.409 22.9873C21.4091 22.9871 21.4092 22.987 21.4093 22.9867L26.8484 8.05888C27.0725 7.44339 26.7554 6.76268 26.1399 6.53845L15.2966 2.58764L13.8123 6.66066C13.7354 6.8714 13.5022 6.97993 13.2915 6.90305C13.0807 6.82617 12.9722 6.59295 13.0491 6.38221L14.533 2.30963L12.9586 1.73564C12.9151 1.72565 12.8704 1.74656 12.8503 1.78641L11.0741 6.66066C10.9972 6.8714 10.764 6.97993 10.5532 6.90305C10.3425 6.82617 10.234 6.59295 10.3108 6.38221L12.0871 1.50796C12.2568 1.04255 12.7716 0.802788 13.237 0.972469H13.2371L15.193 1.68526L15.1934 1.68565L26.4184 5.77532C27.4552 6.15351 27.9893 7.30041 27.6116 8.33742L22.1724 23.2652C21.8844 24.0537 21.1352 24.5788 20.2958 24.5806Z" fill="black"/>
<path d="M21.8917 15.0806C21.7449 15.0804 21.5992 15.0545 21.4613 15.004L16.647 13.25C16.4362 13.1731 16.3277 12.9399 16.4046 12.7291C16.4815 12.5184 16.7147 12.4099 16.9254 12.4867L21.7398 14.2408C21.9688 14.3241 22.222 14.2061 22.3054 13.977L23.7715 9.95361C23.8546 9.72471 23.7368 9.47169 23.5081 9.38797L16.5929 6.86834C16.4356 6.81165 16.2597 6.84815 16.138 6.96274C15.9745 7.11616 15.7175 7.10801 15.564 6.94444C15.411 6.78141 15.4187 6.52533 15.5811 6.37167C15.9252 6.04439 16.4253 5.94106 16.8711 6.10511L23.7862 8.62475C24.4362 8.86247 24.7711 9.58153 24.5347 10.2321L23.0686 14.2555C22.888 14.7501 22.4181 15.0795 21.8917 15.0806Z" fill="black"/>
<path d="M20.5767 10.4999C20.5292 10.4998 20.4821 10.4915 20.4374 10.4753L18.2427 9.6756C18.0319 9.59872 17.9234 9.36551 18.0003 9.15477C18.0772 8.94403 18.3104 8.8355 18.5212 8.91243L20.7159 9.7121C20.9267 9.78898 21.0352 10.0221 20.9583 10.2329C20.8998 10.3933 20.7474 10.4999 20.5767 10.4999Z" fill="black"/>
<path d="M20.5464 12.4382C20.499 12.4381 20.4518 12.4298 20.4072 12.4136L17.02 11.1795C16.8093 11.1027 16.7008 10.8694 16.7776 10.6587C16.8545 10.448 17.0877 10.3394 17.2985 10.4163L20.6856 11.6503C20.8964 11.7272 21.0049 11.9604 20.928 12.1711C20.8696 12.3315 20.7171 12.4382 20.5464 12.4382Z" fill="black"/>
<path d="M3.24655 26.0002H1.16486C0.669648 25.9998 0.268258 25.5985 0.267578 25.1034V7.01208C0.268258 6.51687 0.669648 6.11567 1.16486 6.11523H3.24655C3.47074 6.11509 3.6526 6.29676 3.65275 6.52094V6.52143V25.594C3.6529 25.8182 3.47123 26.0001 3.24704 26.0002C3.24689 26.0002 3.2467 26.0002 3.24655 26.0002ZM1.16486 6.92758C1.11812 6.92758 1.08021 6.96534 1.07997 7.01208V25.1033C1.08021 25.1501 1.11812 25.1878 1.16486 25.1878H2.84041V6.92758H1.16486Z" fill="black"/>
<path d="M15.1929 26.0002H3.24604C3.02185 26.0004 2.83999 25.8187 2.83984 25.5945C2.83984 25.5944 2.83984 25.5942 2.83984 25.594V6.52143C2.8397 6.29724 3.02137 6.11538 3.24555 6.11523H3.24604H15.1929C16.2962 6.1163 17.1904 7.01033 17.1918 8.11364V24.0018C17.1904 25.1051 16.2962 25.9991 15.1929 26.0002ZM3.65223 25.1878H15.1929C15.8478 25.1872 16.3785 24.6566 16.3794 24.0018V8.11364C16.3785 7.4588 15.8478 6.92821 15.1929 6.92763H3.65223V25.1878Z" fill="black"/>
<path d="M13.6963 16.4828H6.33688C5.64471 16.482 5.08378 15.9211 5.08301 15.2289V10.9468C5.08398 10.2548 5.64486 9.69409 6.33688 9.69336H13.6963C14.3883 9.69409 14.9492 10.2548 14.9502 10.9468V15.2289C14.9493 15.9211 14.3884 16.482 13.6963 16.4828ZM6.33688 10.5057C6.09328 10.5059 5.89574 10.7032 5.8954 10.9468V15.2289C5.89559 15.4727 6.09313 15.6702 6.33688 15.6704H13.6963C13.94 15.6702 14.1376 15.4727 14.1378 15.2289V10.9468C14.1374 10.7032 13.9399 10.5059 13.6963 10.5057H6.33688Z" fill="black"/>
<path d="M11.1832 12.579H8.8476C8.62327 12.579 8.44141 12.3971 8.44141 12.1728C8.44141 11.9485 8.62327 11.7666 8.8476 11.7666H11.1832C11.4075 11.7666 11.5894 11.9485 11.5894 12.1728C11.5894 12.3971 11.4075 12.579 11.1832 12.579Z" fill="black"/>
<path d="M11.8188 14.41H8.21381C7.98948 14.41 7.80762 14.2282 7.80762 14.0039C7.80762 13.7795 7.98948 13.5977 8.21381 13.5977H11.8188C12.0431 13.5977 12.2249 13.7795 12.2249 14.0039C12.2249 14.2282 12.0431 14.41 11.8188 14.41Z" fill="black"/>
</svg>
