<svg width="30" height="21" viewBox="0 0 30 21" fill="none" xmlns="http://www.w3.org/2000/svg">
<path d="M15.5644 1.02413L15.5645 1.02416L28.3166 6.91702C28.8435 7.13761 29.1005 7.65572 29.1 8.16313C29.0995 8.67049 28.8417 9.18839 28.316 9.4088L25.7674 10.5865V14.2896C26.1837 14.5025 26.4697 14.941 26.4697 15.4471V17.054C26.4697 17.371 26.2178 17.6314 25.9027 17.6314H24.4977C24.1826 17.6314 23.9307 17.371 23.9307 17.054V15.4467C23.9307 14.9409 24.2171 14.5024 24.6334 14.2893V11.1105L22.8679 11.9264V17.054C22.8679 17.6169 22.5193 18.1308 21.998 18.3325C21.998 18.3325 21.9979 18.3325 21.9979 18.3325L21.9619 18.2392C20.4002 18.8439 16.5951 20.25 14.9995 20.25C13.403 20.25 9.59909 18.8439 8.03744 18.2392L15.5644 1.02413ZM15.5644 1.02413C15.206 0.858811 14.794 0.858427 14.4354 1.02416C14.4354 1.02416 14.4354 1.02416 14.4354 1.02416L1.68349 6.91708C1.15927 7.13842 0.900956 7.65583 0.900003 8.16285C0.899049 8.67 1.15558 9.18761 1.68331 9.40882L15.5644 1.02413ZM15.5645 15.3017L15.5645 15.3017C15.2058 15.4673 14.794 15.4681 14.435 15.3016C14.2086 15.1972 12.8604 14.5741 11.462 13.9277C10.1393 13.3164 8.77159 12.6842 8.26571 12.4506V17.054C8.26571 17.1416 8.31886 17.2197 8.40448 17.2529C8.40449 17.2529 8.40449 17.2529 8.4045 17.2529L8.36839 17.3461C9.54928 17.8032 13.5172 19.2952 14.9998 19.2952C16.4818 19.2952 20.4503 17.8035 21.6315 17.3461L15.5645 15.3017ZM15.5645 15.3017L21.7342 12.4507V17.054C21.7342 17.1415 21.6809 17.2197 21.5954 17.2529L15.5645 15.3017ZM2.15034 8.35635L2.15028 8.35633C2.03616 8.30368 2.02386 8.20631 2.02408 8.16344V8.16292C2.02408 8.11951 2.03619 8.02243 2.15065 7.96948C2.15066 7.96948 2.15067 7.96948 2.15067 7.96947L14.904 2.07591C14.9653 2.04771 15.035 2.04771 15.0962 2.07591L27.8498 7.96944C27.9635 8.02213 27.9761 8.11866 27.9765 8.16292C27.9761 8.20702 27.9633 8.30392 27.8493 8.35667C27.8493 8.35668 27.8493 8.35668 27.8492 8.35668L15.0959 14.2499C15.0351 14.2779 14.9648 14.278 14.9041 14.25C14.9041 14.25 14.9041 14.25 14.9041 14.25L2.15034 8.35635ZM25.3364 16.4766H25.0653L25.0653 15.4476C25.0653 15.4474 25.0653 15.4473 25.0653 15.4472C25.0656 15.3957 25.0841 15.3642 25.1059 15.3447C25.1296 15.3236 25.1637 15.311 25.2009 15.311C25.2381 15.311 25.2722 15.3235 25.2958 15.3446C25.3175 15.364 25.336 15.3954 25.3364 15.4472C25.3364 15.4473 25.3364 15.4474 25.3364 15.4476L25.3364 16.4766Z" fill="black" stroke="#2A166F" stroke-width="0.2"/>
</svg>
